<?xml version="1.0" standalone="no"?>
<!DOCTYPE svg PUBLIC "-//W3C//DTD SVG 20010904//EN"
 "http://www.w3.org/TR/2001/REC-SVG-20010904/DTD/svg10.dtd">
<svg version="1.0" xmlns="http://www.w3.org/2000/svg"
 width="430.000000pt" height="430.000000pt" viewBox="0 0 430.000000 430.000000"
 preserveAspectRatio="xMidYMid meet">
<metadata>
Created by potrace 1.14, written by Peter Selinger 2001-2017
</metadata>
<g transform="translate(0.000000,430.000000) scale(0.100000,-0.100000)"
fill="#000000" stroke="none">
<path d="M17 3692 c-16 -3 -17 -109 -17 -1551 l0 -1548 295 -1 295 0 1 21 c0
12 1 297 2 632 l2 610 560 5 560 5 1 280 1 280 -551 -1 c-303 0 -556 2 -563 4
-16 5 -16 682 1 683 53 3 1099 -1 1102 -4 2 -2 58 -156 125 -343 66 -186 143
-402 171 -479 61 -173 75 -210 238 -670 73 -203 150 -422 172 -485 22 -63 44
-124 49 -135 4 -11 36 -99 70 -195 34 -96 65 -183 70 -192 8 -15 36 -17 289
-16 273 1 280 1 293 22 17 26 22 8 -116 396 -58 162 -157 444 -222 625 -64
182 -127 359 -141 395 -36 98 -275 773 -279 790 -2 8 -4 15 -5 15 0 0 -70 193
-154 429 l-153 430 -1040 0 c-571 1 -1047 0 -1056 -2z"/>
<path d="M3730 3692 l-45 -3 -288 -795 -288 -795 96 -272 c53 -150 119 -337
147 -417 28 -80 53 -148 57 -152 6 -7 83 199 255 682 37 102 71 194 76 205 4
11 32 85 60 165 91 257 162 453 190 530 16 41 80 219 143 395 63 176 127 350
141 388 17 45 21 67 13 68 -50 2 -521 3 -557 1z"/>
</g>
</svg>
